<svg width="54" height="54" viewBox="0 0 54 54" fill="none" xmlns="http://www.w3.org/2000/svg">
<rect width="54" height="54" rx="27" fill="#212121"/>
<g clip-path="url(#clip0_493_2561)">
<path fill-rule="evenodd" clip-rule="evenodd" d="M151.541 17.103H143.287V33.9201C143.287 35.4509 143.577 36.5472 144.156 37.2091C144.777 37.8297 145.707 38.1606 146.949 38.202C148.19 38.202 149.72 38.1606 151.541 38.0779V42.9182C146.824 43.5388 143.37 43.1665 141.177 41.8012C138.985 40.3946 137.888 37.7676 137.888 33.9201V17.103H131.745V11.8903H137.888V4.81597L143.287 3.20251V11.8903H151.541V17.103ZM81.1787 29.8865C81.7165 32.6583 82.9783 34.8096 84.9641 36.3403C86.9912 37.871 89.4734 38.6364 92.4108 38.6364C96.5064 38.6364 99.4851 37.1264 101.347 34.1063L105.939 36.7127C102.919 41.3875 98.3681 43.725 92.2866 43.725C87.3635 43.725 83.3506 42.1943 80.2478 39.1328C77.1864 36.03 75.6557 32.1205 75.6557 27.4043C75.6557 22.7294 77.1657 18.8406 80.1858 15.7378C83.2058 12.635 87.1153 11.0836 91.9143 11.0836C96.4651 11.0836 100.168 12.6971 103.022 15.924C105.918 19.1095 107.366 22.957 107.366 27.4663C107.366 28.2524 107.304 29.0591 107.18 29.8865H81.1787ZM91.9143 16.1722C89.0184 16.1722 86.6189 16.9996 84.7158 18.6544C82.8128 20.2679 81.6337 22.4398 81.1787 25.1703H101.905C101.45 22.233 100.292 19.999 98.4302 18.4682C96.5685 16.9375 94.3965 16.1722 91.9143 16.1722ZM68.2061 11.8903H74.0393L61.6282 42.9182H55.2985L42.8873 11.8903H48.7206L58.4633 37.147L68.2061 11.8903ZM128.652 11.3318C123.977 11.3318 120.75 13.2556 118.971 17.103V11.8903H113.572V42.9182H118.971V26.4734C118.971 23.0811 119.923 20.6195 121.826 19.0888C123.729 17.5581 126.004 16.8548 128.652 16.9789V11.3318ZM163.928 36.3403C161.942 34.8096 160.68 32.6583 160.142 29.8865H186.144C186.268 29.0591 186.33 28.2524 186.33 27.4663C186.33 22.957 184.882 19.1095 181.986 15.924C179.131 12.6971 175.429 11.0836 170.878 11.0836C166.079 11.0836 162.169 12.635 159.149 15.7378C156.129 18.8406 154.619 22.7294 154.619 27.4043C154.619 32.1205 156.15 36.03 159.211 39.1328C162.314 42.1943 166.327 43.725 171.25 43.725C177.332 43.725 181.882 41.3875 184.902 36.7127L180.31 34.1063C178.449 37.1264 175.47 38.6364 171.374 38.6364C168.437 38.6364 165.955 37.871 163.928 36.3403ZM163.679 18.6544C165.582 16.9996 167.982 16.1722 170.878 16.1722C173.36 16.1722 175.532 16.9375 177.394 18.4682C179.255 19.999 180.414 22.233 180.869 25.1703H160.142C160.597 22.4398 161.776 20.2679 163.679 18.6544ZM197.935 17.103C199.714 13.2556 202.941 11.3318 207.615 11.3318V16.9789C204.968 16.8548 202.692 17.5581 200.789 19.0888C198.886 20.6195 197.935 23.0811 197.935 26.4734V42.9182H192.536V11.8903H197.935V17.103ZM15.6356 22.5519H21.0258V32.8528L35.4662 11.8763H39.4928V42.9078H34.2499V22.0307L19.8404 42.9078H15.6356V22.5519ZM15.896 17.035C16.5793 17.7183 17.4233 18.0599 18.4281 18.0599C19.3927 18.0599 20.2167 17.7183 20.8999 17.035C21.5832 16.3518 21.9248 15.5278 21.9248 14.5632C21.9248 13.5986 21.5832 12.7746 20.8999 12.0914C20.2167 11.3679 19.3927 11.0062 18.4281 11.0062C17.4233 11.0062 16.5793 11.3679 15.896 12.0914C15.2128 12.7746 14.8711 13.5986 14.8711 14.5632C14.8711 15.5278 15.2128 16.3518 15.896 17.035Z" fill="#F1F1EF"/>
</g>
<defs>
<clipPath id="clip0_493_2561">
<rect width="26.6135" height="33.4601" fill="white" transform="translate(13.6932 10.2699)"/>
</clipPath>
</defs>
</svg>
